# Blender v2.79 (sub 0) OBJ File: 'background.blend'
# www.blender.org
mtllib background.mtl
o background
v -27.836918 -15.636920 -27.836927
v -27.836918 40.036922 27.836931
v -27.836918 -15.636930 27.836924
v -27.836918 40.036930 -27.836920
v 27.836918 -15.636930 27.836924
v 27.836918 40.036930 -27.836920
v 27.836918 -15.636920 -27.836927
v 27.836918 40.036922 27.836931
v -27.836918 -15.636920 -27.836927
v 27.836918 -15.636930 27.836924
v 27.836918 -15.636920 -27.836927
v -27.836918 -15.636930 27.836924
v -27.836918 40.036930 -27.836920
v 27.836918 -15.636920 -27.836927
v 27.836918 40.036930 -27.836920
v -27.836918 -15.636920 -27.836927
v -27.836918 40.036922 27.836931
v 27.836918 40.036930 -27.836920
v 27.836918 40.036922 27.836931
v -27.836918 40.036930 -27.836920
v -27.836918 -15.636930 27.836924
v 27.836918 40.036922 27.836931
v 27.836918 -15.636930 27.836924
v -27.836918 40.036922 27.836931
vt 0.125000 0.000000
vt 0.375000 0.250000
vt 0.375000 0.000000
vt 0.125000 0.250000
vt 0.625000 0.000000
vt 0.875000 0.250000
vt 0.875000 0.000000
vt 0.625000 0.250000
vt 0.375000 0.750000
vt 0.625000 1.000000
vt 0.625000 0.750000
vt 0.375000 1.000000
vt 0.375000 0.500000
vt 0.625000 0.750000
vt 0.625000 0.500000
vt 0.375000 0.750000
vt 0.375000 0.250000
vt 0.625000 0.500000
vt 0.625000 0.250000
vt 0.375000 0.500000
vt 0.375000 0.000000
vt 0.625000 0.250000
vt 0.625000 0.000000
vt 0.375000 0.250000
vn 1.0000 0.0000 0.0000
vn -1.0000 -0.0000 0.0000
vn 0.0000 1.0000 0.0000
vn 0.0000 -0.0000 1.0000
vn 0.0000 -1.0000 -0.0000
vn 0.0000 0.0000 -1.0000
usemtl mt_background
s 1
f 1/1/1 2/2/1 3/3/1
f 1/1/1 4/4/1 2/2/1
f 5/5/2 6/6/2 7/7/2
f 5/5/2 8/8/2 6/6/2
f 9/9/3 10/10/3 11/11/3
f 9/9/3 12/12/3 10/10/3
f 13/13/4 14/14/4 15/15/4
f 13/13/4 16/16/4 14/14/4
f 17/17/5 18/18/5 19/19/5
f 17/17/5 20/20/5 18/18/5
f 21/21/6 22/22/6 23/23/6
f 21/21/6 24/24/6 22/22/6
